<?xml version="1.0" encoding="iso-8859-1"?>
<!-- Generator: Adobe Illustrator 19.0.0, SVG Export Plug-In . SVG Version: 6.00 Build 0)  -->
<svg version="1.1" id="Capa_1" xmlns="http://www.w3.org/2000/svg" xmlns:xlink="http://www.w3.org/1999/xlink" x="0px" y="0px"
	 viewBox="0 0 512 512" style="enable-background:new 0 0 512 512;" xml:space="preserve">
<g>
	<g>
		<path d="M504.5,0H7.5C3.357,0,0,3.358,0,7.5v497c0,4.142,3.357,7.5,7.5,7.5h497c4.143,0,7.5-3.358,7.5-7.5V7.5
			C512,3.358,508.643,0,504.5,0z M497,497H15V15h482V497z"/>
	</g>
</g>
<g>
	<g>
		<path d="M474.5,30h-437c-4.143,0-7.5,3.358-7.5,7.5v45c0,4.142,3.357,7.5,7.5,7.5s7.5-3.358,7.5-7.5V45h422v422H45V112.5
			c0-4.142-3.357-7.5-7.5-7.5s-7.5,3.358-7.5,7.5v362c0,4.142,3.357,7.5,7.5,7.5h437c4.143,0,7.5-3.358,7.5-7.5v-437
			C482,33.358,478.643,30,474.5,30z"/>
	</g>
</g>
<g>
	<g>
		<path d="M316,113c-42.458,0-77,34.542-77,77v132c0,42.458,34.542,77,77,77s77-34.542,77-77V190C393,147.542,358.458,113,316,113z
			 M378,322c0,34.187-27.813,62-62,62s-62-27.813-62-62V190c0-34.187,27.813-62,62-62s62,27.813,62,62V322z"/>
	</g>
</g>
<g>
	<g>
		<path d="M316,153c-20.402,0-37,16.598-37,37v132c0,20.402,16.598,37,37,37c20.402,0,37-16.598,37-37V190
			C353,169.598,336.402,153,316,153z M338,322c0,12.131-9.869,22-22,22c-12.131,0-22-9.869-22-22V190c0-12.131,9.869-22,22-22
			c12.131,0,22,9.869,22,22V322z"/>
	</g>
</g>
<g>
	<g>
		<path d="M205.258,114.433c-2.832-0.951-5.777-1.433-8.755-1.433c-8.56,0-16.755,4.073-21.923,10.896l-49.999,66
			c-4.436,5.855-6.325,13.087-5.322,20.363c1.004,7.277,4.781,13.727,10.637,18.163c4.82,3.651,10.556,5.581,16.588,5.581
			c8.697,0,16.692-3.972,21.938-10.895l0.578-0.764V371.5c0,15.164,12.337,27.5,27.5,27.5c15.163,0,27.5-12.336,27.5-27.5V140.501
			C224,128.676,216.469,118.2,205.258,114.433z M209.002,371.5c0,6.893-5.607,12.5-12.5,12.5s-12.5-5.607-12.5-12.5V200.022
			c0-3.222-2.058-6.083-5.111-7.109c-0.785-0.264-1.591-0.391-2.388-0.391c-2.304,0-4.534,1.064-5.979,2.972l-14.058,18.555
			c-2.385,3.147-6.022,4.953-9.98,4.953c-2.736,0-5.341-0.877-7.532-2.537c-2.662-2.016-4.379-4.948-4.835-8.255
			c-0.456-3.308,0.403-6.595,2.42-9.257l49.999-66c2.349-3.101,6.074-4.953,9.966-4.953c1.351,0,2.689,0.22,3.979,0.652
			c5.095,1.712,8.519,6.474,8.519,11.849V371.5z"/>
	</g>
</g>
<g>
</g>
<g>
</g>
<g>
</g>
<g>
</g>
<g>
</g>
<g>
</g>
<g>
</g>
<g>
</g>
<g>
</g>
<g>
</g>
<g>
</g>
<g>
</g>
<g>
</g>
<g>
</g>
<g>
</g>
</svg>
