<?xml version="1.0" encoding="iso-8859-1"?>
<!-- Generator: Adobe Illustrator 16.0.0, SVG Export Plug-In . SVG Version: 6.00 Build 0)  -->
<!DOCTYPE svg PUBLIC "-//W3C//DTD SVG 1.1//EN" "http://www.w3.org/Graphics/SVG/1.1/DTD/svg11.dtd">
<svg version="1.1" id="Capa_1" xmlns="http://www.w3.org/2000/svg" xmlns:xlink="http://www.w3.org/1999/xlink" x="0px" y="0px"
	 width="377.343px" height="377.343px" viewBox="0 0 377.343 377.343" style="enable-background:new 0 0 377.343 377.343;"
	 xml:space="preserve">
<g>
	<path d="M301.689,53.5H75.651c-10.876,0-19.725,8.842-19.725,19.713v230.909c0,10.868,8.843,19.711,19.725,19.711h226.039
		c10.873,0,19.722-8.843,19.722-19.711V73.218C321.406,62.348,312.562,53.5,301.689,53.5z M182.551,146.928
		c0,7.913-3.345,14.829-10.036,20.739c-6.692,5.912-14.418,8.87-23.188,8.87H115.88v35.491h66.666v29.406H83.002v-64.998
		c0-7.839,3.304-14.704,9.922-20.581c6.611-5.885,14.341-8.826,23.18-8.826h33.566v-35.492h-33.448v11.965H82.996v-11.965
		c0-7.838,3.305-14.703,9.924-20.585c6.611-5.885,14.339-8.821,23.18-8.821h33.452c7.79,0,14.703,2.332,20.75,6.999
		c3.926,3.176,6.952,6.473,9.064,9.891c2.118,3.412,3.18,7.586,3.18,12.522v35.384H182.551z M338.677,0H38.662
		C19.094,0,3.226,15.869,3.226,35.439v306.464c0,19.573,15.869,35.439,35.437,35.439h300.02c19.568,0,35.436-15.866,35.436-35.439
		V35.434C374.117,15.869,358.25,0,338.677,0z M335.381,304.122c0,18.567-15.113,33.687-33.691,33.687H75.651
		c-18.576,0-33.695-15.114-33.695-33.687V73.218c0-18.569,15.114-33.688,33.695-33.688h226.039
		c18.572,0,33.691,15.114,33.691,33.688V304.122z"/>
</g>
<g>
</g>
<g>
</g>
<g>
</g>
<g>
</g>
<g>
</g>
<g>
</g>
<g>
</g>
<g>
</g>
<g>
</g>
<g>
</g>
<g>
</g>
<g>
</g>
<g>
</g>
<g>
</g>
<g>
</g>
</svg>
