<?xml version="1.0" encoding="iso-8859-1"?>
<!-- Generator: Adobe Illustrator 16.0.0, SVG Export Plug-In . SVG Version: 6.00 Build 0)  -->
<!DOCTYPE svg PUBLIC "-//W3C//DTD SVG 1.1//EN" "http://www.w3.org/Graphics/SVG/1.1/DTD/svg11.dtd">
<svg version="1.1" id="Capa_1" xmlns="http://www.w3.org/2000/svg" xmlns:xlink="http://www.w3.org/1999/xlink" x="0px" y="0px"
	 width="407.601px" height="407.601px" viewBox="0 0 407.601 407.601" style="enable-background:new 0 0 407.601 407.601;"
	 xml:space="preserve">
<g>
	<path d="M325.882,57.79H81.717c-11.748,0-21.306,9.552-21.306,21.293v249.425c0,11.738,9.552,21.291,21.306,21.291h244.165
		c11.744,0,21.302-9.553,21.302-21.291V79.089C347.178,67.348,337.626,57.79,325.882,57.79z M206.685,239.062
		c0,8.541-3.597,15.953-10.781,22.23c-7.185,6.283-15.468,9.422-24.858,9.422h-35.145c-9.475,0-17.759-3.121-24.861-9.363
		c-7.099-6.242-10.657-13.636-10.657-22.184V225.26h35.518v13.907h35.145V189h-35.145c-9.475,0-17.759-3.142-24.861-9.425
		c-7.104-6.283-10.657-13.654-10.657-22.13v-58.6h104.836v31.765h-69.206v26.613h35.154c9.396,0,17.656,3.142,24.805,9.422
		c7.149,6.283,10.719,13.657,10.719,22.13v50.286H206.685z M365.832,0H41.763C20.626,0,3.485,17.142,3.485,38.281v331.035
		c0,21.144,17.141,38.284,38.278,38.284h324.075c21.138,0,38.278-17.141,38.278-38.284V38.275C404.116,17.142,386.976,0,365.832,0z
		 M362.274,328.509c0,20.055-16.326,36.387-36.393,36.387H81.717c-20.064,0-36.396-16.326-36.396-36.387V79.089
		c0-20.058,16.325-36.39,36.396-36.39h244.165c20.061,0,36.393,16.326,36.393,36.39V328.509z"/>
</g>
<g>
</g>
<g>
</g>
<g>
</g>
<g>
</g>
<g>
</g>
<g>
</g>
<g>
</g>
<g>
</g>
<g>
</g>
<g>
</g>
<g>
</g>
<g>
</g>
<g>
</g>
<g>
</g>
<g>
</g>
</svg>
