<?xml version="1.0" encoding="iso-8859-1"?>
<!-- Generator: Adobe Illustrator 16.0.0, SVG Export Plug-In . SVG Version: 6.00 Build 0)  -->
<!DOCTYPE svg PUBLIC "-//W3C//DTD SVG 1.1//EN" "http://www.w3.org/Graphics/SVG/1.1/DTD/svg11.dtd">
<svg version="1.1" id="Capa_1" xmlns="http://www.w3.org/2000/svg" xmlns:xlink="http://www.w3.org/1999/xlink" x="0px" y="0px"
	 width="419.901px" height="419.901px" viewBox="0 0 419.901 419.901" style="enable-background:new 0 0 419.901 419.901;"
	 xml:space="preserve">
<g>
	<path d="M136.017,186.797h36.72v39.494h-36.72V186.797z M357.655,81.482v256.953c0,12.094-9.84,21.934-21.939,21.934H84.183
		c-12.103,0-21.949-9.84-21.949-21.934V81.482c0-12.096,9.84-21.936,21.949-21.936h251.533
		C347.815,59.54,357.655,69.386,357.655,81.482z M209.948,186.453c0-9.329-3.958-17.153-11.858-23.477l-1.641-1.239
		c-6.729-5.188-14.422-7.788-23.09-7.788h-37.341v-39.488h36.836v13.311h36.721v-13.423c0-8.723-3.702-16.343-11.104-22.853
		c-7.401-6.509-15.944-9.758-25.608-9.758h-36.839c-9.758,0-18.295,3.255-25.608,9.758c-7.316,6.504-10.982,14.124-10.982,22.853
		v112.059c0,8.799,3.681,16.44,11.043,22.907c7.358,6.466,15.92,9.706,25.672,9.706h37.223c9.591,0,18.085-3.24,25.486-9.706
		c7.386-6.479,11.091-14.108,11.091-22.907V186.453z M416.312,39.437v341.025c0,21.781-17.659,39.439-39.434,39.439H43.023
		c-21.775,0-39.434-17.658-39.434-39.439V39.437C3.589,17.658,21.248,0,43.023,0h333.856
		C398.653,0.006,416.312,17.665,416.312,39.437z M373.207,81.482c0-20.664-16.818-37.488-37.491-37.488H84.183
		c-20.67,0-37.494,16.818-37.494,37.488v256.953c0,20.661,16.818,37.485,37.494,37.485h251.533
		c20.667,0,37.491-16.818,37.491-37.485V81.482z"/>
</g>
<g>
</g>
<g>
</g>
<g>
</g>
<g>
</g>
<g>
</g>
<g>
</g>
<g>
</g>
<g>
</g>
<g>
</g>
<g>
</g>
<g>
</g>
<g>
</g>
<g>
</g>
<g>
</g>
<g>
</g>
</svg>
