<?xml version="1.0" encoding="iso-8859-1"?>
<!-- Generator: Adobe Illustrator 16.0.0, SVG Export Plug-In . SVG Version: 6.00 Build 0)  -->
<!DOCTYPE svg PUBLIC "-//W3C//DTD SVG 1.1//EN" "http://www.w3.org/Graphics/SVG/1.1/DTD/svg11.dtd">
<svg version="1.1" id="Capa_1" xmlns="http://www.w3.org/2000/svg" xmlns:xlink="http://www.w3.org/1999/xlink" x="0px" y="0px"
	 width="377.343px" height="377.343px" viewBox="0 0 377.343 377.343" style="enable-background:new 0 0 377.343 377.343;"
	 xml:space="preserve">
<g>
	<path d="M301.697,53.5H75.651c-10.875,0-19.718,8.842-19.718,19.713v230.909c0,10.868,8.843,19.711,19.718,19.711h226.046
		c10.867,0,19.71-8.843,19.71-19.711V73.218C321.407,62.348,312.564,53.5,301.697,53.5z M181.202,204.926
		c0,7.913-3.327,14.776-9.968,20.586c-6.656,5.812-14.328,8.723-23.02,8.723h-32.879c-8.764,0-16.461-2.911-23.07-8.723
		c-6.617-5.81-9.922-12.673-9.922-20.586v-12.979h32.089v12.881h33.895v-35.491h-34.129c-8.769,0-16.424-2.911-22.963-8.722
		c-6.539-5.817-9.807-12.643-9.807-20.487v-35.899c0-7.773,3.308-14.602,9.923-20.488c6.614-5.882,14.307-8.818,23.07-8.818h33.562
		c8.694,0,16.403,2.958,23.128,8.871c6.728,5.915,10.09,12.79,10.09,20.634V204.926z M114.421,104.329h33.905v35.485h-33.905
		V104.329z M338.677,0H38.665C19.096,0,3.221,15.869,3.221,35.439v306.464c0,19.573,15.875,35.439,35.443,35.439h300.012
		c19.569,0,35.444-15.866,35.444-35.439V35.434C374.121,15.869,358.246,0,338.677,0z M335.382,304.122
		c0,18.567-15.113,33.687-33.685,33.687H75.651c-18.574,0-33.693-15.114-33.693-33.687V73.218c0-18.569,15.114-33.688,33.693-33.688
		h226.046c18.566,0,33.685,15.114,33.685,33.688V304.122z"/>
</g>
<g>
</g>
<g>
</g>
<g>
</g>
<g>
</g>
<g>
</g>
<g>
</g>
<g>
</g>
<g>
</g>
<g>
</g>
<g>
</g>
<g>
</g>
<g>
</g>
<g>
</g>
<g>
</g>
<g>
</g>
</svg>
